<svg width="108" height="32" viewBox="0 0 108 32" fill="none" xmlns="http://www.w3.org/2000/svg">
<g clip-path="url(#clip0_314_822)">
<path d="M23.2762 17.9633C22.1991 17.9633 21.3382 17.0311 21.4443 15.9175C21.5341 14.9482 22.3949 14.2388 23.3578 14.2388H27.9274C29.3268 14.2388 30.3182 12.8736 29.9143 11.5208C28.009 5.14423 22.1583 0.5 15.2305 0.5C7.3521 0.5 0.864953 6.50945 0 14.2388H0.163199C3.18237 14.2388 6.11179 12.9355 7.9641 10.5267C9.57976 8.42323 12.1909 7.14462 15.2713 7.14462C17.348 7.14462 19.1799 7.69319 20.6283 8.7202C21.5422 9.36775 21.6034 10.7247 20.7303 11.4506C20.1183 11.9621 19.2289 11.9167 18.5802 11.4506C17.6744 10.8031 16.634 10.469 15.459 10.469C12.3337 10.469 10.1142 12.688 10.1142 15.8721C10.1142 19.0563 12.3337 21.2753 15.459 21.2753C16.6667 21.2753 17.7397 20.9206 18.6659 20.2235C19.3146 19.7327 20.2162 19.7946 20.8119 20.3473C20.8119 20.3473 22.3133 21.8775 20.6406 23.0117C19.1595 24.014 17.348 24.6079 15.2468 24.6079C12.2889 24.6079 9.75928 23.4159 8.13546 21.4444C6.26275 19.1676 3.41085 17.955 0.481436 17.955H0.0244798C0.979192 25.5895 7.42146 31.4917 15.2305 31.4917C22.093 31.4917 27.8988 26.9341 29.8531 20.6483C30.2693 19.312 29.2493 17.955 27.858 17.955H23.2721L23.2762 17.9633Z" fill="url(#paint0_linear_314_822)"/>
<path d="M41.54 23.64C40.4333 23.64 39.44 23.4067 38.56 22.94C37.68 22.4733 36.9933 21.8267 36.5 21C36.0067 20.16 35.76 19.2133 35.76 18.16C35.76 17.1067 36.0067 16.1667 36.5 15.34C36.9933 14.5133 37.6733 13.8667 38.54 13.4C39.42 12.9333 40.42 12.7 41.54 12.7C42.5933 12.7 43.5133 12.9133 44.3 13.34C45.1 13.7667 45.7 14.38 46.1 15.18L44.18 16.3C43.8733 15.8067 43.4867 15.44 43.02 15.2C42.5667 14.9467 42.0667 14.82 41.52 14.82C40.5867 14.82 39.8133 15.1267 39.2 15.74C38.5867 16.34 38.28 17.1467 38.28 18.16C38.28 19.1733 38.58 19.9867 39.18 20.6C39.7933 21.2 40.5733 21.5 41.52 21.5C42.0667 21.5 42.5667 21.38 43.02 21.14C43.4867 20.8867 43.8733 20.5133 44.18 20.02L46.1 21.14C45.6867 21.94 45.08 22.56 44.28 23C43.4933 23.4267 42.58 23.64 41.54 23.64Z" fill="url(#paint1_linear_314_822)"/>
<path d="M52.3411 12.7C53.9144 12.7 55.1144 13.08 55.9411 13.84C56.7811 14.5867 57.2011 15.72 57.2011 17.24V23.5H54.8411V22.2C54.5344 22.6667 54.0944 23.0267 53.5211 23.28C52.9611 23.52 52.2811 23.64 51.4811 23.64C50.6811 23.64 49.9811 23.5067 49.3811 23.24C48.7811 22.96 48.3144 22.58 47.9811 22.1C47.6611 21.6067 47.5011 21.0533 47.5011 20.44C47.5011 19.48 47.8544 18.7133 48.5611 18.14C49.2811 17.5533 50.4078 17.26 51.9411 17.26H54.7011V17.1C54.7011 16.3533 54.4744 15.78 54.0211 15.38C53.5811 14.98 52.9211 14.78 52.0411 14.78C51.4411 14.78 50.8478 14.8733 50.2611 15.06C49.6878 15.2467 49.2011 15.5067 48.8011 15.84L47.8211 14.02C48.3811 13.5933 49.0544 13.2667 49.8411 13.04C50.6278 12.8133 51.4611 12.7 52.3411 12.7ZM52.0011 21.82C52.6278 21.82 53.1811 21.68 53.6611 21.4C54.1544 21.1067 54.5011 20.6933 54.7011 20.16V18.92H52.1211C50.6811 18.92 49.9611 19.3933 49.9611 20.34C49.9611 20.7933 50.1411 21.1533 50.5011 21.42C50.8611 21.6867 51.3611 21.82 52.0011 21.82Z" fill="url(#paint2_linear_314_822)"/>
<path d="M60.4095 8.66H62.9095V23.5H60.4095V8.66Z" fill="url(#paint3_linear_314_822)"/>
<path d="M72.1108 12.7C73.1508 12.7 74.0775 12.9267 74.8908 13.38C75.7175 13.8333 76.3641 14.4733 76.8308 15.3C77.2974 16.1267 77.5308 17.08 77.5308 18.16C77.5308 19.24 77.2974 20.2 76.8308 21.04C76.3641 21.8667 75.7175 22.5067 74.8908 22.96C74.0775 23.4133 73.1508 23.64 72.1108 23.64C70.6708 23.64 69.5308 23.16 68.6908 22.2V27.38H66.1908V12.82H68.5708V14.22C68.9841 13.7133 69.4908 13.3333 70.0908 13.08C70.7041 12.8267 71.3774 12.7 72.1108 12.7ZM71.8308 21.5C72.7508 21.5 73.5041 21.1933 74.0908 20.58C74.6908 19.9667 74.9908 19.16 74.9908 18.16C74.9908 17.16 74.6908 16.3533 74.0908 15.74C73.5041 15.1267 72.7508 14.82 71.8308 14.82C71.2308 14.82 70.6908 14.96 70.2108 15.24C69.7308 15.5067 69.3508 15.8933 69.0708 16.4C68.7908 16.9067 68.6508 17.4933 68.6508 18.16C68.6508 18.8267 68.7908 19.4133 69.0708 19.92C69.3508 20.4267 69.7308 20.82 70.2108 21.1C70.6908 21.3667 71.2308 21.5 71.8308 21.5Z" fill="url(#paint4_linear_314_822)"/>
<path d="M83.845 12.7C85.4183 12.7 86.6183 13.08 87.445 13.84C88.285 14.5867 88.705 15.72 88.705 17.24V23.5H86.345V22.2C86.0383 22.6667 85.5983 23.0267 85.025 23.28C84.465 23.52 83.785 23.64 82.985 23.64C82.185 23.64 81.485 23.5067 80.885 23.24C80.285 22.96 79.8183 22.58 79.485 22.1C79.165 21.6067 79.005 21.0533 79.005 20.44C79.005 19.48 79.3583 18.7133 80.065 18.14C80.785 17.5533 81.9117 17.26 83.445 17.26H86.205V17.1C86.205 16.3533 85.9783 15.78 85.525 15.38C85.085 14.98 84.425 14.78 83.545 14.78C82.945 14.78 82.3517 14.8733 81.765 15.06C81.1917 15.2467 80.705 15.5067 80.305 15.84L79.325 14.02C79.885 13.5933 80.5583 13.2667 81.345 13.04C82.1317 12.8133 82.965 12.7 83.845 12.7ZM83.505 21.82C84.1317 21.82 84.685 21.68 85.165 21.4C85.6583 21.1067 86.005 20.6933 86.205 20.16V18.92H83.625C82.185 18.92 81.465 19.3933 81.465 20.34C81.465 20.7933 81.645 21.1533 82.005 21.42C82.365 21.6867 82.865 21.82 83.505 21.82Z" fill="url(#paint5_linear_314_822)"/>
<path d="M102.471 8.66V23.5H100.071V22.12C99.6578 22.6267 99.1444 23.0067 98.5311 23.26C97.9311 23.5133 97.2644 23.64 96.5311 23.64C95.5044 23.64 94.5778 23.4133 93.7511 22.96C92.9378 22.5067 92.2978 21.8667 91.8311 21.04C91.3644 20.2 91.1311 19.24 91.1311 18.16C91.1311 17.08 91.3644 16.1267 91.8311 15.3C92.2978 14.4733 92.9378 13.8333 93.7511 13.38C94.5778 12.9267 95.5044 12.7 96.5311 12.7C97.2378 12.7 97.8844 12.82 98.4711 13.06C99.0578 13.3 99.5578 13.66 99.9711 14.14V8.66H102.471ZM96.8311 21.5C97.4311 21.5 97.9711 21.3667 98.4511 21.1C98.9311 20.82 99.3111 20.4267 99.5911 19.92C99.8711 19.4133 100.011 18.8267 100.011 18.16C100.011 17.4933 99.8711 16.9067 99.5911 16.4C99.3111 15.8933 98.9311 15.5067 98.4511 15.24C97.9711 14.96 97.4311 14.82 96.8311 14.82C96.2311 14.82 95.6911 14.96 95.2111 15.24C94.7311 15.5067 94.3511 15.8933 94.0711 16.4C93.7911 16.9067 93.6511 17.4933 93.6511 18.16C93.6511 18.8267 93.7911 19.4133 94.0711 19.92C94.3511 20.4267 94.7311 20.82 95.2111 21.1C95.6911 21.3667 96.2311 21.5 96.8311 21.5Z" fill="url(#paint6_linear_314_822)"/>
</g>
<defs>
<linearGradient id="paint0_linear_314_822" x1="35" y1="16" x2="105" y2="16" gradientUnits="userSpaceOnUse">
<stop stop-color="#1A2980"/>
<stop offset="1" stop-color="#26D0CE"/>
</linearGradient>
<linearGradient id="paint1_linear_314_822" x1="35" y1="16" x2="105" y2="16" gradientUnits="userSpaceOnUse">
<stop stop-color="#1A2980"/>
<stop offset="1" stop-color="#26D0CE"/>
</linearGradient>
<linearGradient id="paint2_linear_314_822" x1="35" y1="16" x2="105" y2="16" gradientUnits="userSpaceOnUse">
<stop stop-color="#1A2980"/>
<stop offset="1" stop-color="#26D0CE"/>
</linearGradient>
<linearGradient id="paint3_linear_314_822" x1="35" y1="16" x2="105" y2="16" gradientUnits="userSpaceOnUse">
<stop stop-color="#1A2980"/>
<stop offset="1" stop-color="#26D0CE"/>
</linearGradient>
<linearGradient id="paint4_linear_314_822" x1="35" y1="16" x2="105" y2="16" gradientUnits="userSpaceOnUse">
<stop stop-color="#1A2980"/>
<stop offset="1" stop-color="#26D0CE"/>
</linearGradient>
<linearGradient id="paint5_linear_314_822" x1="35" y1="16" x2="105" y2="16" gradientUnits="userSpaceOnUse">
<stop stop-color="#1A2980"/>
<stop offset="1" stop-color="#26D0CE"/>
</linearGradient>
<linearGradient id="paint6_linear_314_822" x1="35" y1="16" x2="105" y2="16" gradientUnits="userSpaceOnUse">
<stop stop-color="#1A2980"/>
<stop offset="1" stop-color="#26D0CE"/>
</linearGradient>
<clipPath id="clip0_314_822">
<rect width="108" height="31" fill="white" transform="translate(0 0.5)"/>
</clipPath>
</defs>
</svg>
