<svg width="30" height="31" viewBox="0 0 30 31" fill="none" xmlns="http://www.w3.org/2000/svg">
<path d="M23.2762 17.4633C22.1991 17.4633 21.3382 16.5311 21.4443 15.4175C21.5341 14.4482 22.3949 13.7388 23.3578 13.7388H27.9274C29.3268 13.7388 30.3182 12.3736 29.9143 11.0208C28.009 4.64423 22.1583 0 15.2305 0C7.3521 0 0.864953 6.00945 0 13.7388H0.163199C3.18237 13.7388 6.11179 12.4355 7.9641 10.0267C9.57976 7.92323 12.1909 6.64462 15.2713 6.64462C17.348 6.64462 19.1799 7.19319 20.6283 8.2202C21.5422 8.86775 21.6034 10.2247 20.7303 10.9506C20.1183 11.4621 19.2289 11.4167 18.5802 10.9506C17.6744 10.3031 16.634 9.969 15.459 9.969C12.3337 9.969 10.1142 12.188 10.1142 15.3721C10.1142 18.5563 12.3337 20.7753 15.459 20.7753C16.6667 20.7753 17.7397 20.4206 18.6659 19.7235C19.3146 19.2327 20.2162 19.2946 20.8119 19.8473C20.8119 19.8473 22.3133 21.3775 20.6406 22.5117C19.1595 23.514 17.348 24.1079 15.2468 24.1079C12.2889 24.1079 9.75928 22.9159 8.13546 20.9444C6.26275 18.6676 3.41085 17.455 0.481436 17.455H0.0244798C0.979192 25.0895 7.42146 30.9917 15.2305 30.9917C22.093 30.9917 27.8988 26.4341 29.8531 20.1483C30.2693 18.812 29.2493 17.455 27.858 17.455H23.2721L23.2762 17.4633Z" fill="url(#paint0_linear_50_367)"/>
<defs>
<linearGradient id="paint0_linear_50_367" x1="0" y1="15.4959" x2="30.0053" y2="15.4959" gradientUnits="userSpaceOnUse">
<stop stop-color="#1A2980"/>
<stop offset="1" stop-color="#26D0CE"/>
</linearGradient>
</defs>
</svg>
