<?xml version="1.0" standalone="no"?>
<!DOCTYPE svg PUBLIC "-//W3C//DTD SVG 20010904//EN"
 "http://www.w3.org/TR/2001/REC-SVG-20010904/DTD/svg10.dtd">
<svg version="1.0" xmlns="http://www.w3.org/2000/svg"
 width="992.000000pt" height="992.000000pt" viewBox="0 0 992.000000 992.000000"
 preserveAspectRatio="xMidYMid meet">
<metadata>
Created by potrace 1.14, written by Peter Selinger 2001-2017
</metadata>
<g transform="translate(0.000000,992.000000) scale(0.100000,-0.100000)"
fill="#000000" stroke="none">
<path d="M4778 9915 c-1 -1 -51 -6 -109 -9 -58 -4 -116 -8 -128 -11 -12 -2
-48 -6 -80 -9 -57 -6 -110 -13 -161 -22 -14 -2 -41 -6 -60 -9 -19 -3 -46 -7
-60 -10 -14 -3 -36 -8 -50 -10 -53 -8 -125 -22 -125 -25 0 -1 -13 -4 -30 -6
-39 -6 -329 -82 -358 -94 -12 -5 -76 -26 -142 -47 -66 -21 -122 -40 -125 -43
-7 -7 -103 -42 -117 -43 -7 0 -13 -4 -13 -9 0 -4 -3 -7 -7 -6 -8 1 -22 -4 -83
-30 -19 -8 -37 -16 -40 -17 -3 0 -27 -12 -55 -25 -27 -13 -52 -24 -55 -24 -15
-4 -331 -167 -340 -176 -3 -3 -21 -13 -40 -24 -74 -40 -290 -180 -290 -188 0
-5 -4 -7 -8 -4 -6 3 -196 -130 -257 -181 -5 -5 -42 -34 -82 -65 -40 -30 -69
-58 -66 -62 4 -3 1 -6 -6 -6 -7 0 -18 -6 -25 -12 -7 -7 -37 -33 -66 -58 -71
-61 -343 -333 -405 -405 -27 -32 -61 -70 -75 -84 -14 -15 -38 -45 -55 -66 -16
-22 -34 -45 -40 -51 -49 -54 -160 -205 -262 -359 -51 -77 -97 -145 -103 -152
-5 -7 -10 -15 -10 -19 0 -3 -16 -33 -36 -65 -66 -109 -190 -351 -262 -509 -40
-89 -117 -289 -121 -313 0 -4 -8 -21 -17 -38 -9 -17 -18 -43 -20 -57 -3 -14
-8 -30 -12 -36 -4 -6 -7 -14 -8 -18 -1 -5 -2 -9 -4 -10 -1 -2 -3 -10 -5 -18
-1 -8 -15 -54 -29 -102 -15 -48 -29 -97 -31 -108 -2 -11 -6 -24 -9 -28 -3 -5
-7 -19 -10 -33 -2 -13 -12 -55 -21 -94 -18 -73 -21 -90 -31 -140 -9 -44 -12
-60 -14 -60 -1 0 -3 -9 -4 -20 -3 -20 -17 -109 -22 -133 -7 -38 -28 -200 -29
-222 l0 -25 100 1 c174 1 301 12 470 40 50 9 101 17 115 19 38 6 83 15 102 21
9 3 25 6 35 8 10 2 38 10 63 17 25 7 50 13 55 15 62 15 222 68 229 75 6 5 17
9 25 9 9 1 34 9 56 20 22 10 43 16 47 14 5 -3 8 0 8 5 0 6 5 11 10 11 6 0 27
7 48 17 20 9 39 17 42 18 56 15 468 250 500 285 3 4 27 22 54 41 28 18 57 41
66 49 9 8 33 28 53 43 108 84 387 360 387 383 0 3 10 15 23 28 12 12 33 38 47
56 120 161 331 371 495 495 66 50 123 94 126 98 3 5 9 7 12 5 4 -1 15 4 25 13
10 9 34 24 53 35 19 10 41 24 49 31 46 36 397 203 428 203 6 0 12 5 12 12 0 6
3 9 6 5 4 -3 19 0 35 9 16 8 31 14 34 14 3 -1 42 11 88 26 102 33 211 61 262
68 11 2 27 6 35 9 8 4 29 8 45 11 17 2 30 5 30 6 0 1 7 3 95 14 25 4 56 8 70
10 14 3 59 8 100 11 41 4 86 9 100 11 36 5 449 5 490 -1 19 -2 69 -7 110 -10
77 -6 109 -10 170 -20 96 -17 147 -26 170 -30 14 -3 36 -7 50 -10 32 -6 240
-63 260 -72 8 -3 17 -7 20 -8 44 -11 98 -31 172 -64 26 -12 51 -21 54 -21 3 0
63 -29 133 -63 170 -85 324 -184 402 -257 49 -46 124 -169 134 -220 2 -8 4
-16 5 -17 7 -9 24 -121 23 -148 -2 -52 -13 -133 -22 -163 -12 -41 -52 -123
-68 -140 -7 -7 -13 -17 -13 -22 0 -24 -128 -132 -194 -164 -96 -47 -143 -56
-261 -52 -109 4 -193 29 -276 79 -80 49 -84 52 -89 58 -9 9 -122 76 -190 111
-109 56 -307 127 -370 132 -14 1 -30 5 -35 8 -6 3 -35 9 -65 13 -30 4 -68 10
-85 12 -44 7 -425 10 -425 4 0 -3 -10 -6 -22 -7 -32 0 -114 -13 -168 -25 -25
-5 -54 -11 -65 -13 -11 -2 -20 -4 -20 -5 0 -3 -12 -6 -54 -15 -23 -5 -95 -30
-136 -46 -75 -31 -171 -76 -173 -82 -2 -5 -8 -6 -13 -2 -5 3 -9 0 -9 -5 0 -6
-6 -11 -13 -11 -8 0 -39 -18 -71 -40 -31 -22 -61 -40 -66 -40 -6 0 -10 -4 -10
-10 0 -5 -6 -10 -14 -10 -8 0 -16 -3 -18 -8 -1 -4 -25 -25 -53 -47 -126 -101
-277 -277 -351 -407 -109 -194 -198 -438 -218 -598 -3 -25 -8 -56 -11 -70 -3
-14 -8 -56 -10 -95 -2 -38 -4 -72 -5 -75 -6 -18 -4 -56 4 -61 5 -4 5 -13 0
-20 -11 -18 -12 -89 -1 -89 4 0 3 -8 -2 -19 -6 -10 -8 -20 -6 -22 2 -3 6 -36
9 -74 3 -39 8 -81 11 -95 3 -14 8 -50 11 -80 3 -30 8 -58 10 -62 3 -5 7 -16 9
-25 11 -60 41 -161 72 -243 38 -100 128 -280 147 -292 6 -4 7 -8 3 -8 -5 0 -2
-7 5 -15 27 -30 38 -44 38 -50 0 -18 152 -189 236 -266 94 -86 292 -215 394
-256 19 -8 49 -21 65 -28 31 -14 176 -64 208 -71 9 -2 27 -6 40 -9 12 -2 54
-11 92 -19 39 -9 96 -17 129 -20 32 -3 61 -7 64 -10 3 -3 11 -1 19 5 8 7 13 8
13 1 0 -6 54 -9 153 -7 200 4 278 14 437 54 25 7 62 19 83 26 20 8 37 12 37 9
0 -4 6 -1 13 5 8 6 17 8 20 4 4 -3 7 0 7 7 0 7 3 10 6 7 4 -4 19 -1 33 7 14 7
64 32 111 55 116 57 141 73 280 170 34 23 67 44 73 45 7 2 25 8 40 15 46 18
108 31 167 34 55 3 180 -15 203 -30 6 -4 14 -8 17 -9 55 -11 154 -85 210 -156
55 -69 108 -158 112 -187 2 -9 6 -18 10 -21 4 -3 9 -18 12 -33 3 -15 9 -39 12
-54 13 -55 7 -210 -8 -219 -4 -3 -8 -13 -8 -23 0 -10 -17 -44 -39 -77 -49 -76
-108 -136 -178 -181 -15 -10 -32 -21 -38 -26 -22 -17 -115 -76 -115 -72 0 3
-16 -7 -36 -20 -20 -13 -70 -41 -112 -62 -43 -21 -79 -40 -82 -43 -3 -3 -18
-10 -35 -17 -16 -6 -80 -32 -141 -57 -91 -38 -212 -80 -294 -101 -215 -57
-346 -82 -525 -100 -33 -3 -82 -8 -110 -11 -73 -8 -387 -8 -480 -1 -116 9
-197 19 -280 33 -22 3 -49 8 -60 9 -78 13 -153 29 -235 50 -52 14 -102 27
-110 30 -49 13 -208 69 -285 100 -11 5 -22 9 -25 10 -3 0 -27 11 -54 23 -27
12 -52 22 -57 22 -5 0 -9 5 -9 10 0 6 -9 10 -19 10 -11 0 -26 7 -35 15 -8 8
-19 15 -25 15 -6 0 -29 11 -51 25 -22 14 -42 25 -45 25 -8 0 -252 156 -265
170 -3 3 -30 24 -60 46 -105 79 -251 214 -352 325 -38 43 -122 140 -143 166
-47 59 -234 241 -320 311 -101 83 -222 172 -233 172 -6 0 -12 4 -14 9 -4 13
-217 140 -313 187 -44 21 -81 42 -83 46 -2 5 -11 8 -21 8 -9 0 -21 4 -27 8
-10 9 -183 82 -204 86 -3 1 -9 4 -15 7 -10 6 -109 41 -130 45 -5 1 -54 16
-107 32 -53 16 -99 28 -102 25 -2 -3 -13 0 -23 5 -16 9 -40 15 -108 27 -11 2
-33 6 -50 10 -16 4 -41 8 -55 10 -14 2 -25 4 -25 5 0 2 -21 5 -105 15 -30 3
-71 8 -90 10 -69 9 -218 16 -358 18 l-143 3 6 -56 c4 -30 11 -77 16 -103 5
-26 8 -51 7 -55 -1 -4 1 -14 4 -22 5 -15 36 -167 45 -225 2 -16 7 -37 10 -45
3 -8 8 -26 10 -39 2 -13 15 -64 29 -115 14 -50 27 -98 28 -106 8 -35 62 -200
76 -235 9 -20 22 -61 26 -80 1 -5 25 -66 54 -135 28 -69 52 -131 52 -137 1 -7
4 -13 8 -13 3 0 12 -17 19 -37 24 -67 222 -458 240 -473 3 -3 14 -21 24 -40
24 -49 106 -179 139 -223 16 -19 28 -40 28 -45 0 -5 9 -17 20 -27 11 -10 20
-24 20 -31 0 -7 3 -14 8 -16 4 -1 40 -47 80 -101 75 -101 97 -129 119 -152 7
-8 13 -16 13 -19 0 -3 10 -16 23 -29 12 -13 42 -48 67 -77 134 -158 331 -355
499 -500 29 -25 58 -50 64 -55 7 -6 50 -41 97 -78 47 -38 92 -74 100 -80 8 -7
38 -28 65 -47 28 -19 52 -38 55 -41 3 -3 46 -32 95 -64 50 -33 96 -65 103 -72
7 -7 17 -13 22 -13 8 0 112 -62 145 -87 61 -45 570 -293 601 -293 8 0 14 -5
14 -11 0 -5 4 -8 8 -5 4 2 21 -1 37 -9 65 -28 131 -53 150 -57 11 -1 22 -6 25
-9 3 -3 52 -20 110 -38 58 -18 116 -37 130 -41 27 -10 102 -30 134 -36 10 -2
42 -10 70 -18 28 -8 62 -16 76 -18 14 -2 30 -6 36 -10 5 -4 32 -9 58 -13 27
-3 51 -7 55 -9 3 -2 22 -7 41 -10 19 -3 46 -8 60 -10 14 -3 43 -8 65 -11 36
-6 61 -9 145 -20 14 -2 25 -4 25 -5 0 0 23 -3 50 -6 28 -2 70 -6 95 -9 261
-27 737 -25 970 4 41 5 77 9 80 9 3 0 7 0 10 2 3 1 21 3 40 5 19 2 67 8 105
15 39 6 84 13 100 16 43 6 116 21 245 49 77 16 213 51 240 62 21 8 28 10 100
28 8 2 16 4 18 5 1 2 7 4 12 5 6 1 12 4 15 5 3 1 10 4 15 5 6 1 12 4 15 5 3 1
8 3 13 4 18 4 150 50 177 61 17 7 53 21 80 31 28 10 61 24 75 31 14 7 28 13
32 13 17 0 358 165 468 226 36 20 83 47 105 59 86 48 105 60 105 68 0 4 4 7
10 7 5 0 42 21 81 48 39 26 79 52 87 57 61 38 361 264 403 304 9 9 40 36 69
61 72 61 240 222 309 294 109 114 140 149 220 245 20 24 43 52 52 62 8 10 24
30 35 44 10 14 31 40 47 57 15 18 27 35 27 39 0 5 11 19 25 33 14 14 25 28 25
31 0 5 42 64 78 110 4 6 25 37 46 70 22 33 52 79 68 103 15 24 28 47 28 53 0
5 4 9 9 9 5 0 11 8 14 18 4 9 18 37 33 62 54 91 69 118 139 255 69 135 156
326 170 373 3 12 10 22 15 22 5 0 7 7 4 15 -4 8 -1 15 7 15 7 0 10 3 7 6 -3 3
8 40 24 82 16 42 31 84 34 92 2 8 14 45 28 83 13 37 22 67 20 67 -3 0 0 9 6
21 14 25 18 46 27 129 8 79 8 81 -1 152 -7 62 -41 175 -58 196 -6 6 -7 12 -2
12 5 0 5 4 -1 8 -12 9 -32 39 -45 70 -13 31 -167 182 -185 182 -8 0 -15 4 -15
9 0 14 -140 74 -202 87 -13 2 -36 7 -53 10 -16 4 -399 7 -850 8 l-820 2 -80
28 c-241 83 -389 281 -401 535 -8 170 42 309 153 427 61 65 211 162 227 147 3
-4 6 -1 6 5 0 9 71 29 140 39 14 2 390 5 835 6 808 3 810 3 889 26 72 21 132
48 164 73 6 6 12 7 12 2 0 -5 5 -1 11 9 5 9 15 17 22 17 15 0 135 123 162 165
36 56 75 144 95 216 16 59 19 93 15 183 -5 121 -8 146 -17 162 -4 6 -9 21 -12
35 -2 13 -16 57 -30 97 -14 39 -22 72 -19 72 3 0 1 6 -4 13 -6 6 -23 48 -38
92 -16 44 -32 84 -37 89 -4 6 -8 16 -8 23 0 7 -8 32 -19 56 -10 23 -31 71 -46
107 -46 106 -139 295 -147 298 -4 2 -8 12 -8 23 0 10 -5 19 -12 19 -6 0 -9 3
-6 6 4 3 -14 39 -38 80 -24 41 -44 77 -44 80 0 3 -8 17 -18 32 -34 48 -76 117
-77 122 -1 14 -202 301 -273 390 -24 30 -49 62 -55 70 -163 208 -426 480 -632
655 -33 28 -70 60 -83 73 -12 12 -25 22 -28 22 -3 0 -11 6 -19 13 -7 6 -27 23
-45 37 -18 14 -37 30 -44 35 -6 6 -28 21 -48 35 -21 14 -38 28 -38 33 0 4 -5
7 -11 7 -6 0 -28 13 -48 28 -43 34 -224 157 -231 157 -5 1 -72 42 -122 77 -15
10 -29 18 -32 18 -3 0 -29 14 -58 31 -82 49 -352 182 -458 227 -89 37 -363
142 -385 147 -11 2 -24 6 -75 24 -19 7 -46 14 -59 17 -14 3 -28 7 -33 10 -4 3
-16 7 -26 9 -10 2 -63 15 -118 29 -54 15 -110 29 -124 32 -14 3 -36 8 -50 11
-14 3 -34 7 -45 8 -11 2 -20 4 -20 5 0 2 -18 6 -65 14 -19 3 -45 8 -57 10 -11
3 -43 8 -70 12 -26 3 -57 8 -68 11 -25 5 -79 12 -130 17 -93 9 -182 18 -215
22 -42 6 -627 14 -632 9z"/>
</g>
</svg>
